Coordinates
version=1
nRows=20
nColumns=38
inDegrees=no

Units are S.I. units (second, meters, Newtons, ...)
If the header above contains a line with 'inDegrees', this indicates whether rotational values are in degrees (yes) or radians (no).

endheader
time	pelvis_tilt	pelvis_list	pelvis_rotation	pelvis_tx	pelvis_ty	pelvis_tz	hip_flexion_r	hip_adduction_r	hip_rotation_r	knee_angle_r	ankle_angle_r	subtalar_angle_r	mtp_angle_r	hip_flexion_l	hip_adduction_l	hip_rotation_l	knee_angle_l	ankle_angle_l	subtalar_angle_l	mtp_angle_l	lumbar_extension	lumbar_bending	lumbar_rotation	arm_flex_r	arm_add_r	arm_rot_r	elbow_flex_r	pro_sup_r	wrist_flex_r	wrist_dev_r	arm_flex_l	arm_add_l	arm_rot_l	elbow_flex_l	pro_sup_l	wrist_flex_l	wrist_dev_l
1.07	2.08988	1.41329	-0.498588	1.00828	0.65458	0.958307	0.472119	0.0531083	-0.330673	0.293431	0.230194	0	0	-0.217164	-0.0818164	-0.20875	0.279737	0.307716	0	0	-0.346867	0.169858	0.0331806	0.378563	-0.418195	0.134104	1.18798	0.931963	0	0	0.194262	-0.3675	-0.0616326	1.32413	0.909946	0	0
1.08	2.0952	1.41331	-0.497811	1.00844	0.666738	0.956666	0.468568	0.0586818	-0.342411	0.258074	0.225985	0	0	-0.233436	-0.0831061	-0.207917	0.275917	0.311593	0	0	-0.344248	0.17226	0.0289483	0.378088	-0.417539	0.133513	1.18581	0.935006	0	0	0.193776	-0.364675	-0.0650686	1.32313	0.91416	0	0
1.09	2.10075	1.4139	-0.49716	1.00859	0.679083	0.954848	0.463988	0.0640498	-0.352337	0.223165	0.220842	0	0	-0.249126	-0.0841241	-0.207085	0.273123	0.315442	0	0	-0.341269	0.174247	0.0249867	0.37714	-0.417083	0.131656	1.1843	0.937469	0	0	0.193463	-0.361569	-0.0681135	1.32202	0.918218	0	0
1.1	2.10689	1.41425	-0.497159	1.0088	0.691682	0.952894	0.458692	0.0695587	-0.362757	0.191183	0.215076	0	0	-0.264333	-0.0859074	-0.207112	0.272738	0.320013	0	0	-0.338313	0.176294	0.0215195	0.376041	-0.416404	0.128893	1.18266	0.940676	0	0	0.193269	-0.358666	-0.0703101	1.32093	0.920759	0	0
1.11	2.11367	1.41487	-0.497407	1.009	0.704427	0.950798	0.454396	0.0738342	-0.376032	0.166361	0.209951	0	0	-0.278613	-0.0877227	-0.206171	0.27424	0.324489	0	0	-0.335296	0.178257	0.0176991	0.37555	-0.415837	0.126634	1.18064	0.944151	0	0	0.193393	-0.355833	-0.0721757	1.31985	0.922856	0	0
1.12	2.1226	1.41597	-0.499852	1.00916	0.717339	0.94856	0.451354	0.0764491	-0.390901	0.149932	0.206503	0	0	-0.292068	-0.0892213	-0.205129	0.277857	0.32881	0	0	-0.33229	0.179789	0.0138689	0.375303	-0.415161	0.12441	1.17841	0.94765	0	0	0.194219	-0.352648	-0.0739476	1.31799	0.926031	0	0
1.13	2.13198	1.4179	-0.503949	1.00939	0.730509	0.946121	0.450218	0.0774585	-0.404372	0.143143	0.206202	0	0	-0.304654	-0.089923	-0.204696	0.283439	0.332775	0	0	-0.328808	0.180364	0.0109651	0.374731	-0.414794	0.122785	1.17664	0.948853	0	0	0.195078	-0.349268	-0.0755295	1.31614	0.92762	0	0
1.14	2.14572	1.41942	-0.512127	1.00959	0.743931	0.943589	0.449299	0.0772038	-0.417438	0.145278	0.208106	0	0	-0.31697	-0.0912288	-0.203543	0.292036	0.337115	0	0	-0.325852	0.181176	0.00774074	0.37444	-0.41472	0.121395	1.17496	0.949836	0	0	0.195975	-0.345835	-0.0770881	1.31382	0.929844	0	0
1.15	2.16385	1.42096	-0.524081	1.00976	0.757631	0.940939	0.449288	0.0748307	-0.430555	0.15786	0.213305	0	0	-0.328405	-0.0930712	-0.20203	0.304168	0.341615	0	0	-0.322922	0.181855	0.00402643	0.374009	-0.414969	0.120061	1.17337	0.950469	0	0	0.196883	-0.342883	-0.0776367	1.31102	0.932424	0	0
1.16	2.18599	1.42307	-0.539248	1.00979	0.771598	0.938136	0.450068	0.0698232	-0.441879	0.179789	0.220949	0	0	-0.338645	-0.0947576	-0.19917	0.319305	0.345793	0	0	-0.319412	0.182092	-0.000344183	0.373319	-0.415704	0.118746	1.17186	0.951184	0	0	0.197532	-0.340483	-0.0770747	1.30831	0.934676	0	0
1.17	2.21097	1.42583	-0.556324	1.00968	0.785899	0.935125	0.450424	0.0628904	-0.448461	0.207666	0.229224	0	0	-0.347221	-0.0964645	-0.194561	0.337916	0.349381	0	0	-0.314449	0.181876	-0.00572315	0.372492	-0.417097	0.118711	1.16953	0.951687	0	0	0.197693	-0.338941	-0.0747807	1.30543	0.93622	0	0
1.18	2.2353	1.42915	-0.571951	1.00948	0.800602	0.931897	0.450013	0.055065	-0.449494	0.239793	0.237619	0	0	-0.353527	-0.0988094	-0.188634	0.36069	0.352186	0	0	-0.307825	0.181476	-0.0119651	0.370778	-0.418642	0.118896	1.16723	0.951808	0	0	0.197086	-0.338363	-0.0706155	1.30233	0.937124	0	0
1.19	2.25603	1.43273	-0.583361	1.00927	0.815721	0.928458	0.448649	0.0475826	-0.445152	0.273055	0.247156	0	0	-0.356815	-0.102625	-0.182789	0.38895	0.354483	0	0	-0.299561	0.181178	-0.0186744	0.367877	-0.420445	0.11875	1.1658	0.952167	0	0	0.195751	-0.338686	-0.0649374	1.29931	0.937705	0	0
1.2	2.27457	1.43574	-0.592709	1.00925	0.831116	0.92491	0.445089	0.0426126	-0.439752	0.299014	0.250918	0	0	-0.357431	-0.108632	-0.178771	0.423183	0.356148	0	0	-0.290884	0.181199	-0.0249871	0.364228	-0.422374	0.118874	1.16517	0.952573	0	0	0.194054	-0.339831	-0.0584836	1.29678	0.937926	0	0
1.21	2.28683	1.43748	-0.597513	1.00974	0.846294	0.921454	0.442073	0.0401581	-0.440253	0.315445	0.229825	0	0	-0.354233	-0.117662	-0.177836	0.464791	0.356122	0	0	-0.283622	0.181789	-0.0286128	0.360573	-0.423646	0.117923	1.16526	0.952421	0	0	0.193539	-0.34142	-0.0515125	1.2947	0.936619	0	0
1.22	2.27746	1.43745	-0.588115	1.01119	0.860524	0.91855	0.445909	0.04129	-0.437436	0.331472	0.171611	0	0	-0.345885	-0.128937	-0.181893	0.512662	0.348737	0	0	-0.279984	0.18372	-0.0237124	0.359496	-0.424642	0.11613	1.16539	0.949272	0	0	0.195289	-0.341156	-0.0462692	1.29269	0.930808	0	0
1.23	2.22708	1.43408	-0.545623	1.01306	0.873509	0.9167	0.463019	0.0447854	-0.43167	0.369515	0.112031	0	0	-0.329096	-0.14339	-0.186686	0.568974	0.332059	0	0	-0.279815	0.191414	-0.0108815	0.364008	-0.427018	0.11689	1.16482	0.945893	0	0	0.197449	-0.336523	-0.0460028	1.29055	0.92529	0	0
1.24	2.15021	1.4281	-0.47963	1.01444	0.886019	0.91579	0.490524	0.047181	-0.425564	0.43428	0.0920968	0	0	-0.304237	-0.159421	-0.186092	0.632927	0.305271	0	0	-0.28017	0.204759	0.00301263	0.373008	-0.431721	0.123413	1.16371	0.94263	0	0	0.196955	-0.329222	-0.0495645	1.28904	0.92001	0	0
1.25	2.08988	1.42051	-0.428008	1.01511	0.898784	0.915508	0.515337	0.0488625	-0.415777	0.505342	0.104057	0	0	-0.277262	-0.173824	-0.175527	0.700731	0.269988	0	0	-0.281766	0.219761	0.0117975	0.384604	-0.437241	0.136003	1.16154	0.941818	0	0	0.193834	-0.323475	-0.0544143	1.28913	0.919385	0	0
1.26	2.05943	1.41271	-0.402258	1.0155	0.911878	0.915477	0.529468	0.0511007	-0.406037	0.563351	0.115691	0	0	-0.250559	-0.18506	-0.154523	0.770262	0.229861	0	0	-0.285488	0.233087	0.014658	0.396387	-0.441892	0.151437	1.15918	0.941187	0	0	0.189765	-0.322264	-0.0583756	1.29172	0.923708	0	0
